<svg width="100%" viewBox="0 0 690 410" role="img" xmlns="http://www.w3.org/2000/svg" style=""><defs><mask id="imagine-text-gaps-10coax" maskUnits="userSpaceOnUse"><rect x="0" y="0" width="690" height="410" fill="white"/><rect x="222.1875" y="267.140625" width="235.625" height="74.453125" fill="black" rx="2"/><rect x="216.984375" y="338.21875" width="246.03125" height="18.546875" fill="black" rx="2"/></mask></defs>
  <title style="fill:rgb(0, 0, 0);stroke:none;color:rgb(255, 255, 255);stroke-width:1px;stroke-linecap:butt;stroke-linejoin:miter;opacity:1;font-family:&quot;Anthropic Sans&quot;, -apple-system, BlinkMacSystemFont, &quot;Segoe UI&quot;, sans-serif;font-size:16px;font-weight:400;text-anchor:start;dominant-baseline:auto">Send It — Rock climbing tracker logo</title>
  <desc style="fill:rgb(0, 0, 0);stroke:none;color:rgb(255, 255, 255);stroke-width:1px;stroke-linecap:butt;stroke-linejoin:miter;opacity:1;font-family:&quot;Anthropic Sans&quot;, -apple-system, BlinkMacSystemFont, &quot;Segoe UI&quot;, sans-serif;font-size:16px;font-weight:400;text-anchor:start;dominant-baseline:auto">Send It logo with realistic Mount Rainier coloring and dark forest green text.</desc>

  <rect width="680" height="400" rx="16" fill="#0d0d0d" style="fill:rgb(13, 13, 13);stroke:none;color:rgb(255, 255, 255);stroke-width:1px;stroke-linecap:butt;stroke-linejoin:miter;opacity:1;font-family:&quot;Anthropic Sans&quot;, -apple-system, BlinkMacSystemFont, &quot;Segoe UI&quot;, sans-serif;font-size:16px;font-weight:400;text-anchor:start;dominant-baseline:auto"/>

  <!-- Distant background ridge -->
  <polygon points="60,248 200,200 340,210 480,195 620,245 620,260 60,260" fill="#1a1a1a" style="fill:rgb(26, 26, 26);stroke:none;color:rgb(255, 255, 255);stroke-width:1px;stroke-linecap:butt;stroke-linejoin:miter;opacity:1;font-family:&quot;Anthropic Sans&quot;, -apple-system, BlinkMacSystemFont, &quot;Segoe UI&quot;, sans-serif;font-size:16px;font-weight:400;text-anchor:start;dominant-baseline:auto"/>

  <!-- Main Rainier body — shadowed left face, rocky grey-brown tones -->
  <polygon points="&#10;    100,258 190,220 240,205 280,185 300,165 315,148 328,115 338,80&#10;    345,80 352,95 360,118 372,140 390,158 415,175 445,192 490,210 540,230 580,258&#10;  " fill="#3b3228" style="fill:rgb(59, 50, 40);stroke:none;color:rgb(255, 255, 255);stroke-width:1px;stroke-linecap:butt;stroke-linejoin:miter;opacity:1;font-family:&quot;Anthropic Sans&quot;, -apple-system, BlinkMacSystemFont, &quot;Segoe UI&quot;, sans-serif;font-size:16px;font-weight:400;text-anchor:start;dominant-baseline:auto"/>

  <!-- Right lit face — warmer rock tone -->
  <polygon points="&#10;    345,80 352,95 360,118 372,140 390,158 415,175 445,192 490,210 540,230 580,258&#10;    540,258 480,250 430,245 390,248 360,252 345,258&#10;  " fill="#5a4a38" style="fill:rgb(90, 74, 56);stroke:none;color:rgb(255, 255, 255);stroke-width:1px;stroke-linecap:butt;stroke-linejoin:miter;opacity:1;font-family:&quot;Anthropic Sans&quot;, -apple-system, BlinkMacSystemFont, &quot;Segoe UI&quot;, sans-serif;font-size:16px;font-weight:400;text-anchor:start;dominant-baseline:auto"/>

  <!-- Mid rock band across shoulders -->
  <polygon points="&#10;    280,185 300,165 315,148 328,115 338,80 345,80 352,95 360,118 372,140 390,158 415,175 445,192&#10;    430,200 405,188 380,172 362,155 350,132 342,105 335,130 320,144 308,158 292,175&#10;  " fill="#4a3e30" style="fill:rgb(74, 62, 48);stroke:none;color:rgb(255, 255, 255);stroke-width:1px;stroke-linecap:butt;stroke-linejoin:miter;opacity:1;font-family:&quot;Anthropic Sans&quot;, -apple-system, BlinkMacSystemFont, &quot;Segoe UI&quot;, sans-serif;font-size:16px;font-weight:400;text-anchor:start;dominant-baseline:auto"/>

  <!-- Snow cap — Rainier's broad ice cap, blue-white -->
  <polygon points="&#10;    328,115 338,80 345,80 352,95 360,118 372,140&#10;    365,138 355,128 345,118 335,122 325,130 318,128&#10;  " fill="#e8eef5" style="fill:rgb(232, 238, 245);stroke:none;color:rgb(255, 255, 255);stroke-width:1px;stroke-linecap:butt;stroke-linejoin:miter;opacity:1;font-family:&quot;Anthropic Sans&quot;, -apple-system, BlinkMacSystemFont, &quot;Segoe UI&quot;, sans-serif;font-size:16px;font-weight:400;text-anchor:start;dominant-baseline:auto"/>

  <!-- Snow shadow areas on cap -->
  <polygon points="345,80 352,95 360,118 355,128 345,118" fill="#b8c8d8" style="fill:rgb(184, 200, 216);stroke:none;color:rgb(255, 255, 255);stroke-width:1px;stroke-linecap:butt;stroke-linejoin:miter;opacity:1;font-family:&quot;Anthropic Sans&quot;, -apple-system, BlinkMacSystemFont, &quot;Segoe UI&quot;, sans-serif;font-size:16px;font-weight:400;text-anchor:start;dominant-baseline:auto"/>
  <polygon points="338,80 335,100 338,115 345,118 345,80" fill="#d0dce8" style="fill:rgb(208, 220, 232);stroke:none;color:rgb(255, 255, 255);stroke-width:1px;stroke-linecap:butt;stroke-linejoin:miter;opacity:1;font-family:&quot;Anthropic Sans&quot;, -apple-system, BlinkMacSystemFont, &quot;Segoe UI&quot;, sans-serif;font-size:16px;font-weight:400;text-anchor:start;dominant-baseline:auto"/>

  <!-- Glacier tongues left face — icy blue-white -->
  <polygon points="318,128 310,155 319,160 326,145 332,132" fill="#ccdaec" opacity="0.8" style="fill:rgb(204, 218, 236);stroke:none;color:rgb(255, 255, 255);stroke-width:1px;stroke-linecap:butt;stroke-linejoin:miter;opacity:0.8;font-family:&quot;Anthropic Sans&quot;, -apple-system, BlinkMacSystemFont, &quot;Segoe UI&quot;, sans-serif;font-size:16px;font-weight:400;text-anchor:start;dominant-baseline:auto"/>
  <polygon points="300,165 294,192 303,194 309,175 312,163" fill="#ccdaec" opacity="0.6" style="fill:rgb(204, 218, 236);stroke:none;color:rgb(255, 255, 255);stroke-width:1px;stroke-linecap:butt;stroke-linejoin:miter;opacity:0.6;font-family:&quot;Anthropic Sans&quot;, -apple-system, BlinkMacSystemFont, &quot;Segoe UI&quot;, sans-serif;font-size:16px;font-weight:400;text-anchor:start;dominant-baseline:auto"/>
  <polygon points="282,188 277,210 285,212 290,198 287,186" fill="#ccdaec" opacity="0.5" style="fill:rgb(204, 218, 236);stroke:none;color:rgb(255, 255, 255);stroke-width:1px;stroke-linecap:butt;stroke-linejoin:miter;opacity:0.5;font-family:&quot;Anthropic Sans&quot;, -apple-system, BlinkMacSystemFont, &quot;Segoe UI&quot;, sans-serif;font-size:16px;font-weight:400;text-anchor:start;dominant-baseline:auto"/>

  <!-- Glacier tongues right face -->
  <polygon points="365,138 373,165 381,162 375,148 368,136" fill="#dde6f0" opacity="0.7" style="fill:rgb(221, 230, 240);stroke:none;color:rgb(255, 255, 255);stroke-width:1px;stroke-linecap:butt;stroke-linejoin:miter;opacity:0.7;font-family:&quot;Anthropic Sans&quot;, -apple-system, BlinkMacSystemFont, &quot;Segoe UI&quot;, sans-serif;font-size:16px;font-weight:400;text-anchor:start;dominant-baseline:auto"/>
  <polygon points="390,158 400,184 409,180 402,164 394,155" fill="#dde6f0" opacity="0.6" style="fill:rgb(221, 230, 240);stroke:none;color:rgb(255, 255, 255);stroke-width:1px;stroke-linecap:butt;stroke-linejoin:miter;opacity:0.6;font-family:&quot;Anthropic Sans&quot;, -apple-system, BlinkMacSystemFont, &quot;Segoe UI&quot;, sans-serif;font-size:16px;font-weight:400;text-anchor:start;dominant-baseline:auto"/>
  <polygon points="415,175 427,198 436,194 428,178 420,172" fill="#dde6f0" opacity="0.5" style="fill:rgb(221, 230, 240);stroke:none;color:rgb(255, 255, 255);stroke-width:1px;stroke-linecap:butt;stroke-linejoin:miter;opacity:0.5;font-family:&quot;Anthropic Sans&quot;, -apple-system, BlinkMacSystemFont, &quot;Segoe UI&quot;, sans-serif;font-size:16px;font-weight:400;text-anchor:start;dominant-baseline:auto"/>

  <!-- Forest/treeline band at base of rocky section -->
  <polygon points="&#10;    100,258 160,240 210,232 255,226 285,220 310,215 330,214&#10;    345,214 362,215 385,218 415,222 455,228 500,236 545,244 580,258&#10;  " fill="#1a3a10" style="fill:rgb(26, 58, 16);stroke:none;color:rgb(255, 255, 255);stroke-width:1px;stroke-linecap:butt;stroke-linejoin:miter;opacity:1;font-family:&quot;Anthropic Sans&quot;, -apple-system, BlinkMacSystemFont, &quot;Segoe UI&quot;, sans-serif;font-size:16px;font-weight:400;text-anchor:start;dominant-baseline:auto"/>

  <!-- Dashed rope from summit down right side -->
  <path d="M345,80 C355,105 370,132 388,158 C405,182 425,200 448,218" stroke="#ffffff" stroke-width="2" fill="none" stroke-linecap="round" stroke-dasharray="5 4" style="fill:none;stroke:rgb(255, 255, 255);color:rgb(255, 255, 255);stroke-width:2px;stroke-dasharray:5px, 4px;stroke-linecap:round;stroke-linejoin:miter;opacity:1;font-family:&quot;Anthropic Sans&quot;, -apple-system, BlinkMacSystemFont, &quot;Segoe UI&quot;, sans-serif;font-size:16px;font-weight:400;text-anchor:start;dominant-baseline:auto"/>

  <!-- Summit anchor -->
  <circle cx="345" cy="80" r="4" fill="#ffffff" style="fill:rgb(255, 255, 255);stroke:none;color:rgb(255, 255, 255);stroke-width:1px;stroke-linecap:butt;stroke-linejoin:miter;opacity:1;font-family:&quot;Anthropic Sans&quot;, -apple-system, BlinkMacSystemFont, &quot;Segoe UI&quot;, sans-serif;font-size:16px;font-weight:400;text-anchor:start;dominant-baseline:auto"/>
  <circle cx="345" cy="80" r="8" fill="none" stroke="#ffffff" stroke-width="1.5" style="fill:none;stroke:rgb(255, 255, 255);color:rgb(255, 255, 255);stroke-width:1.5px;stroke-linecap:butt;stroke-linejoin:miter;opacity:1;font-family:&quot;Anthropic Sans&quot;, -apple-system, BlinkMacSystemFont, &quot;Segoe UI&quot;, sans-serif;font-size:16px;font-weight:400;text-anchor:start;dominant-baseline:auto"/>

  <!-- Logo text — dark forest green for "It" -->
  <text y="326" text-anchor="middle" x="340" font-family="Georgia, serif" font-weight="700" font-size="62px" style="fill:rgb(0, 0, 0);stroke:none;color:rgb(255, 255, 255);stroke-width:1px;stroke-linecap:butt;stroke-linejoin:miter;opacity:1;font-family:Georgia, serif;font-size:62px;font-weight:700;text-anchor:middle;dominant-baseline:auto">
    <tspan fill="#ffffff" style="fill:rgb(255, 255, 255);stroke:none;color:rgb(255, 255, 255);stroke-width:1px;stroke-linecap:butt;stroke-linejoin:miter;opacity:1;font-family:Georgia, serif;font-size:62px;font-weight:700;text-anchor:middle;dominant-baseline:auto">Send</tspan><tspan fill="#1a5c1a" style="fill:rgb(26, 92, 26);stroke:none;color:rgb(255, 255, 255);stroke-width:1px;stroke-linecap:butt;stroke-linejoin:miter;opacity:1;font-family:Georgia, serif;font-size:62px;font-weight:700;text-anchor:middle;dominant-baseline:auto"> It</tspan>
  </text>

  <!-- Tagline -->
  <line x1="148" y1="348" x2="218" y2="348" stroke="#1a5c1a" stroke-width="1" opacity="0.9" mask="url(#imagine-text-gaps-10coax)" style="fill:rgb(0, 0, 0);stroke:rgb(26, 92, 26);color:rgb(255, 255, 255);stroke-width:1px;stroke-linecap:butt;stroke-linejoin:miter;opacity:0.9;font-family:&quot;Anthropic Sans&quot;, -apple-system, BlinkMacSystemFont, &quot;Segoe UI&quot;, sans-serif;font-size:16px;font-weight:400;text-anchor:start;dominant-baseline:auto"/>
  <line x1="462" y1="348" x2="532" y2="348" stroke="#1a5c1a" stroke-width="1" opacity="0.9" mask="url(#imagine-text-gaps-10coax)" style="fill:rgb(0, 0, 0);stroke:rgb(26, 92, 26);color:rgb(255, 255, 255);stroke-width:1px;stroke-linecap:butt;stroke-linejoin:miter;opacity:0.9;font-family:&quot;Anthropic Sans&quot;, -apple-system, BlinkMacSystemFont, &quot;Segoe UI&quot;, sans-serif;font-size:16px;font-weight:400;text-anchor:start;dominant-baseline:auto"/>
  <text x="340" y="352" text-anchor="middle" font-family="Arial, sans-serif" fill="#1a5c1a" font-weight="400" font-size="13px" letter-spacing="5" style="fill:rgb(26, 92, 26);stroke:none;color:rgb(255, 255, 255);stroke-width:1px;stroke-linecap:butt;stroke-linejoin:miter;opacity:1;font-family:Arial, sans-serif;font-size:13px;font-weight:400;text-anchor:middle;dominant-baseline:auto">CLIMB · TRACK · SEND</text>

</svg>